<svg width="296" height="58" viewBox="0 0 296 58" fill="none" xmlns="http://www.w3.org/2000/svg">
<circle cx="69" cy="28" r="25" fill="#138A72" stroke="#005C4A" stroke-width="2"/>
<g clip-path="url(#clip0_10_6287)">
<path d="M78.7821 13.2199L52.7958 25.2137C49.7977 26.613 50.7971 31.0105 53.9952 31.0105H64.9896V42.0049C64.9896 45.203 69.3871 46.203 70.7865 43.2043L82.7802 17.218C83.7796 14.8187 81.1808 12.2199 78.7821 13.2199Z" fill="white"/>
</g>
<path d="M103 37.25V23.5H105.75V20.75H108.5V18H116.75V20.75H119.5V23.5H122.25V37.25H116.75V31.75H108.5V37.25H103ZM108.5 29H116.75V23.5H114V20.75H111.25V23.5H108.5V29ZM133.25 37.25V26.25H127.75V23.5H133.25V18H138.75V23.5H144.25V26.25H138.75V37.25H133.25ZM149.75 37.25V34.5H147V26.25H149.75V23.5H163.5V26.25H166.25V34.5H163.5V37.25H149.75ZM152.5 34.5H160.75V26.25H152.5V34.5ZM169 37.25V23.5H185.5V26.25H188.25V37.25H182.75V26.25H180V37.25H174.5V26.25H171.75V37.25H169ZM199.25 20.75V18H204.75V20.75H199.25ZM193.75 37.25V34.5H199.25V26.25H196.5V23.5H204.75V34.5H210.25V37.25H193.75ZM213 37.25V31.75H215.75V29H218.5V26.25H215.75V23.5H213V18H218.5V23.5H221.25V26.25H224V23.5H226.75V18H232.25V23.5H229.5V26.25H226.75V29H229.5V31.75H232.25V37.25H226.75V31.75H224V29H221.25V31.75H218.5V37.25H213Z" fill="#138A72"/>
<defs>
<clipPath id="clip0_10_6287">
<rect width="32" height="32" fill="white" transform="translate(51 13)"/>
</clipPath>
</defs>
</svg>
